# xmcd
#
# Track frame offsets:
#	150
#	24130
#	49262
#	67459
#	91702
#	107468
#	125170
#	141227
#	160559
#	182891
#
# Disc length: 2632 seconds
#
# Revision: 1
# Processed by: cddbd v1.4PL0 Copyright (c) Steve Scherf et al.
# Submitted via: audiograbber 1.81.02
#
DISCID=850a460a
DTITLE=David Dee - It's No Secret
DYEAR=1999
DGENRE=Blues
TTITLE0=The Blues
TTITLE1=It's No Secret
TTITLE2=Crying All Night
TTITLE3=You Took The 'V' Out Of Love
TTITLE4=Unselfish Love
TTITLE5=Qualified
TTITLE6=Bad Luck Falling
TTITLE7=Leave Me Alone
TTITLE8=Just To Be Happy
TTITLE9=Mega Bills and Mini Bucks
EXTD=I B Records 731\n© 1999
EXTT0=
EXTT1=
EXTT2=
EXTT3=
EXTT4=
EXTT5=
EXTT6=
EXTT7=
EXTT8=
EXTT9=
PLAYORDER=
